<svg width="42" height="42" viewBox="0 0 42 42" fill="none" xmlns="http://www.w3.org/2000/svg">
<path d="M26.9048 2.66406C29.8468 3.45533 32.5293 5.00572 34.6835 7.15996C36.8377 9.3142 38.3881 11.9967 39.1794 14.9387" stroke="#2C742F" stroke-width="2" stroke-linecap="round" stroke-linejoin="round"/>
<path d="M25.1084 9.37207C26.8732 9.84686 28.4823 10.777 29.7746 12.0692C31.0669 13.3615 31.997 14.9706 32.4718 16.7354" stroke="#2C742F" stroke-width="2" stroke-linecap="round" stroke-linejoin="round"/>
<path d="M12.3843 21.0635C14.184 24.7439 17.1668 27.7138 20.8549 29.4976C21.125 29.6255 21.4237 29.6808 21.7217 29.658C22.0196 29.6352 22.3065 29.535 22.5539 29.3674L27.9857 25.7474C28.2257 25.5872 28.5017 25.4893 28.789 25.4626C29.0762 25.436 29.3656 25.4813 29.6309 25.5946L39.7918 29.9505C40.1369 30.0972 40.4251 30.3519 40.6129 30.6765C40.8007 31.0011 40.8779 31.3779 40.833 31.7502C40.5114 34.263 39.285 36.5725 37.3834 38.2463C35.4818 39.9201 33.0354 40.8436 30.5021 40.8438C22.6777 40.8438 15.1737 37.7355 9.64096 32.2028C4.10825 26.6701 1 19.1661 1 11.3417C1.00023 8.80852 1.92373 6.36232 3.59759 4.46102C5.27145 2.55972 7.58091 1.33368 10.0936 1.01245C10.4659 0.967551 10.8427 1.04482 11.1672 1.23261C11.4918 1.42041 11.7466 1.70857 11.8932 2.0537L16.2526 12.2232C16.3647 12.486 16.4102 12.7724 16.3851 13.057C16.36 13.3415 16.265 13.6155 16.1085 13.8545L12.4989 19.3697C12.335 19.6181 12.2384 19.9046 12.2183 20.2015C12.1982 20.4983 12.2554 20.7953 12.3843 21.0635V21.0635Z" stroke="#2C742F" stroke-width="2" stroke-linecap="round" stroke-linejoin="round"/>
</svg>
